<?xml version="1.0" encoding="utf-8"?>
<!-- Generator: Adobe Illustrator 23.1.1, SVG Export Plug-In . SVG Version: 6.00 Build 0)  -->
<svg version="1.2" baseProfile="tiny"
	 id="svg4" inkscape:version="0.92.2 (5c3e80d, 2017-08-06)" sodipodi:docname="Disney+ logo.svg" xmlns:cc="http://creativecommons.org/ns#" xmlns:dc="http://purl.org/dc/elements/1.1/" xmlns:inkscape="http://www.inkscape.org/namespaces/inkscape" xmlns:rdf="http://www.w3.org/1999/02/22-rdf-syntax-ns#" xmlns:sodipodi="http://sodipodi.sourceforge.net/DTD/sodipodi-0.dtd" xmlns:svg="http://www.w3.org/2000/svg"
	 xmlns="http://www.w3.org/2000/svg" xmlns:xlink="http://www.w3.org/1999/xlink" x="0px" y="0px" viewBox="0 0 1000 543.3"
	 xml:space="preserve">
<title  id="title5586">Disney+ logo</title>
<sodipodi:namedview  bordercolor="#000000" borderlayer="true" borderopacity="0.39215686" gridtolerance="1" guidetolerance="1" id="namedview6" inkscape:current-layer="svg4" inkscape:cx="17.80306" inkscape:cy="29.632707" inkscape:pagecheckerboard="false" inkscape:pageopacity="0" inkscape:pageshadow="2" inkscape:showpageshadow="false" inkscape:window-height="705" inkscape:window-maximized="1" inkscape:window-width="1366" inkscape:window-x="-8" inkscape:window-y="-8" inkscape:zoom="4.9301579" objecttolerance="1" pagecolor="#ffffff" showgrid="false">
	</sodipodi:namedview>
<g>
	<path fill="#FFFFFF" d="M454,368.2c0.6,0.1,0.7,0.1,1.2,0.2c9,1.2,17.9,2.8,24.6,5.9c6.3,2.8,10,6.3,13.3,12.5
		c5.1,9.5,5.4,22.8,0.8,32.8c-3.4,7.5-11,13.8-17.9,17.1c-7.2,3.5-14.2,5.1-22.4,6.1c-14.2,1.6-29.5-1.4-42.3-7.6
		c-7.6-3.7-16.8-10-21.4-18.2c-3.4-6-3.3-13.8,0.9-19.5c6.6-9.1,20.8-11.1,31.5-10.7c8.2,0.3,22.9,2.8,30.6,5.6
		c2.1,0.8,10.1,3.9,11.4,5.3c1,1,1.6,2.4,1.2,3.7c-1.8,5.4-14.9,8.3-18.7,8.8c-10.2,1.6-15.4-2.3-27-6.9c-2.9-1.1-6.7-2.4-9.6-2.6
		c-5.2-0.5-11.6,1-12.6,6.7c-0.5,3,3,5.7,5.6,6.9c6.2,2.7,11.2,3.6,17.3,3.7c18,0.3,38.3-2.7,53-13.1c2-1.4,4-3.5,4-6.2
		c0.1-5.4-9.3-8.7-9.3-8.7c-9.9-4.1-28.3-6.2-37.7-6.9c-9.9-0.9-25.5-2.1-29.3-2.7c-3.9-0.6-8.1-1.3-11.4-2.8
		c-3.4-1.5-6.6-4.9-7.6-8.7c-1.7-6.8,0.5-15.1,4.2-20.5c9.9-14.2,32.9-19.5,50.2-21.7c16.7-2.1,43.7-2.1,60.1,6.7
		c2.5,1.4,3.8,2.6,3.3,5.3c-1.1,5.1-4.9,8.4-9.5,9.8c-4.9,1.5-14.9,2.1-19.3,2.4c-19.8,1.1-43.7,0.5-62.5,5.7c-1.5,0.4-4,1.1-4.9,2
		c-2.9,3.2,5.5,4.1,7.3,4.5c0.5,0.1,0.6,0.1,1.2,0.2L454,368.2 M336.4,280.1c0,0,3.2-4.8,5.9-8.5c4.9-6.7,13.8-15.9,20.5-21.6
		c2-1.7,4.5-3.7,4.5-3.7s-3.8,0.4-5.9,0.8c-5.1,1-12.5,5.9-16.2,9.1c-6.1,5.2-12.9,13.8-9.8,21.4
		C335.7,278.6,336.4,280.1,336.4,280.1 M370.5,289.2c9.7-0.7,18.8-3.5,27.2-8.1c8.3-4.6,20.5-13.7,19.2-24.3c-0.4-3.4-2.6-6-5.5-7.2
		c-3.7-1.6-5.6-1.3-10.3,0.1c-3.4,1-5,1.6-8.2,3.5c-9.5,5.5-23,17.3-30.3,26.8c-1.7,2.2-3.4,4.7-4.7,6.4c-0.8,1.1-1.5,2-1.4,2.3
		C356.7,289.6,366.7,289.5,370.5,289.2 M345.8,307.3c-1,1.1-2.1,3.6-3.2,5.5c-0.6,1-1.7,2.3-2.4,2.8c-2.5,1.9-4.7,1.9-7.1-0.2
		c-3.4-3-5.4-7.7-5.5-12.2c-0.1-2,0.3-4.2-0.1-5.8c-0.6-2.8-3.4-5.7-5-8.4c-1.8-3.2-3.2-8.7-3.4-12.3c-0.6-11.2,5.3-21.4,12.9-29.5
		c7.7-8.2,17.8-15,28.7-19.6c10.3-4.4,25.5-7.3,36.9-3.4c3.7,1.3,8.9,4.4,11.4,7.7c0.5,0.7,1,1.4,1.6,1.8c0.5,0.3,1.8,0.4,2.9,0.6
		c3.6,0.6,8.8,3.4,11,5.2c4.3,3.7,6.6,7.2,7.7,12.3c2.2,10.3-3.8,21.6-10.5,28.5c-11.6,11.8-23,20.2-37.8,26
		c-6.5,2.5-16.6,4.9-24,4.3c-2.3-0.2-4.6-0.8-6.9-0.9c-1.1-0.1-5.3-1.2-5.7-1.5C346.7,307.6,345.9,307.2,345.8,307.3 M359,330.2
		c0.5,0.1,1.1,0.3,1.7,0.5c5.2,2,7.3,6.8,8.6,12.1c3,12.3,4.2,39.4,4.7,50c0.4,8,0.6,15.8,0.9,23.7c0.3,6.7,0.8,15.5-0.6,21.8
		c-0.5,2.2-2,4.9-4.2,6.2c-2.5,1.6-8.1,1.7-11.2,1.1c-7.6-1.6-10.1-6.5-11.2-14c-2.6-17.9-1.3-53.1,0.2-68
		c0.5-4.9,2.4-20.6,4.9-27.2C353.9,334,355.8,329.5,359,330.2 M127.8,360c0,0-11.3,0.8-19.1,1.7c-9.9,1.1-28.5,4.3-39.3,8.1
		c-3.2,1.2-9.8,3.9-10.3,7.2c-0.6,3.4,1.5,6.1,3.9,8.9c1.4,1.6,9.1,9.1,11.3,10.9c9.1,7.6,27.6,19.4,41.2,25.1
		c4.7,1.9,12.4,4.7,12.4,4.7s-0.6-22-0.5-43.8C127.5,371.4,127.8,360,127.8,360 M335.2,368.8c0.6,5.9-0.9,17.1-1.1,18.6
		c-0.5,3.4-3,11.3-3.5,12.2c-2.1,4.8-4.1,8.7-6.3,12.6c-3.7,6.7-12.5,17.3-17.8,21.8c-19.5,16.8-49.6,26.4-75.5,29.6
		c-17.6,2.1-37.7,1.8-56.3-1.6c-6.4-1.2-15.9-3.4-15.9-3.4s0,3.8-0.3,6.5c-0.1,1.2-1.1,4.4-1.6,5.5c-1.4,2.8-3.6,4.2-6.8,4.9
		c-3.9,0.7-8,1-11.6-0.6c-5.9-2.5-8-8-9.1-14.4c-0.8-5.1-1.7-14-1.7-14s-4.4-2.1-8.1-3.9c-11.3-5.6-22.1-12.3-31.5-19.3
		c-2.6-1.9-13.8-11.3-16.3-13.7C65,403,58.8,396.4,54,388c-3.7-6.6-4.8-12.4-1.9-19.3c3.9-9.7,17.8-17,27.3-21.1
		c7-3.1,28.7-10.2,37.7-11.5c4.3-0.6,10.9-1.8,11.3-2.1c0.2-0.1,0.3-0.2,0.4-0.4c0.2-0.3,0.6-9.9,0.5-13.4
		c-0.1-3.5,2.6-26.1,3.4-30.9c0.4-2.6,2.4-12.6,4.4-15.2c1.3-1.8,3.6-1.6,5.5-0.5c10.3,6.4,13.5,28.7,14.3,40.1
		c0.5,6.9,0.7,17.3,0.7,17.3s11.9-0.4,19.2-0.1c7.1,0.2,14.9,1.3,22.3,2.5c9.4,1.5,27.8,5.5,38.3,10.9c8.7,4.4,16.8,11.8,19.4,19.6
		c2.4,7.2,2.1,12.2-1.6,18.7c-4.2,7.3-12.1,12.8-20.1,13.2c-2.4,0.1-11.4-1.1-14.1-3.2c-1.1-0.9-1-2.4-0.2-3.4
		c0.3-0.4,4.5-2.6,7-3.9c1.2-0.7,2.3-1.4,3.2-2.3c2.1-1.8,3.9-3.8,3.7-6.2c-0.3-3-3.5-4.9-6.6-6.1c-14.4-5.7-43.1-10.5-57-11.3
		c-5.4-0.3-13.2-0.6-13.2-0.6l1.6,76.6c0,0,6.4,1.2,11.4,2c2.9,0.4,15.1,1.5,18.4,1.6c24.8,0.7,52.4-1.6,75.1-12.3
		c10-4.7,19.1-10.5,26.1-18.5c9.1-10.5,13.9-24.8,12.7-39.8c-1.4-16.4-12.9-35.8-22.1-47.6c-24.3-31.2-65.9-56.9-102.5-72
		c-37.4-15.4-74.3-24.2-114-25.7c-10.2-0.4-32.5,0.1-43.8,3.3c-1.6,0.5-3.2,1-4.7,1.3c-1.2,0.3-3,1.1-3.6,1.5
		c-0.3,0.2-0.6,0.5-0.6,0.5s0.7,0.4,1.4,0.7c1.2,0.5,6.2,0.8,8.8,1.3c2.3,0.4,4.8,1.7,5.7,3.4c0.9,1.6,1,2.9-0.1,4.3
		c-2.6,3.1-12.2,2.6-16.4,1.9c-4.4-0.7-9.9-2-10.9-5.9c-1.2-4.5,1-8.9,3.3-13c4.7-8.2,11.3-12.4,21.1-15.1c13.9-3.8,31.4-6.5,44.4-7
		c29.6-1.1,57.6,4.1,86.3,12.8c16.4,5,37.9,13.3,53.7,20.9c11.3,5.4,29.1,15.5,39.1,22c3.2,2.1,21.6,15.6,24.5,18
		c6,4.9,13.8,11.9,19.5,17.5c11,10.9,24.6,27.5,31.2,40.7c1.6,3.2,2.8,6.3,4.9,9.9c0.7,1.3,3.7,8.8,4.2,10.9
		c0.5,2.1,1.2,5.3,1.3,5.4C333.9,359.9,335.4,366.3,335.2,368.8 M707.6,351.9c-13.9,3.2-50.3,5-50.3,5l-4.6,14.4
		c0,0,18.2-1.6,31.5-0.2c0,0,4.3-0.5,4.8,4.9c0.2,5-0.4,10.4-0.4,10.4s-0.3,3.3-4.9,4.1c-5,0.8-39.3,2.2-39.3,2.2l-5.6,18.8
		c0,0-2.1,4.3,2.6,3.1c4.3-1.1,40.2-7.9,44.9-6.9c5,1.2,10.6,7.9,9,14c-1.9,7.6-37.8,30.4-59.6,28.8c0,0-11.5,0.7-21.2-14.7
		c-9-14.8,3.4-42.7,3.4-42.7s-5.7-13-1.6-17.5c0,0,2.5-2.2,9.6-2.7l8.8-18.2c0,0-10,0.7-16-6.7c-5.5-7-6-10.2-1.8-12.1
		c4.5-2.2,46.2-9.9,74.9-8.9c0,0,10-1,18.6,16.3C710.5,343.2,714.7,350.2,707.6,351.9 M599.7,421.8c-3.7,8.6-13.4,17.9-25.5,12.1
		c-11.9-5.7-30.9-44.6-30.9-44.6s-7.2-14.5-8.6-14.1c0,0-1.6-2.8-2.5,13c-1,15.8,0.2,46.5-6.1,51.3c-6,4.8-13.2,2.9-16.9-2.7
		c-3.4-5.6-4.8-18.8-3-42.1c2.2-23.3,7.6-48.2,14.5-55.9c6.9-7.7,12.5-2.1,14.6-0.1c0,0,9.2,8.4,24.5,33l2.7,4.6
		c0,0,13.9,23.3,15.3,23.2c0,0,1.1,1.1,2.1,0.3c1.5-0.4,0.9-7.9,0.9-7.9s-2.9-25.3-15.5-68.3c0,0-1.9-5.4-0.6-10.4
		c1.3-5.1,6.4-2.7,6.4-2.7s19.6,9.9,29.1,41.8C609.8,384.3,603.4,413,599.7,421.8 M810.6,402.6c-8.9,15.6-34.1,48.2-67.6,40.5
		c-11.1,26.8-20.3,53.9-25.7,94.5c0,0-1.2,7.9-7.7,5.1c-6.5-2.3-17.2-13.1-19.4-28c-2.3-19.6,6.4-52.8,24.3-90.8
		c-5.2-8.5-8.8-20.6-5.7-37.8c0,0,4.5-32,36.6-60.8c0,0,3.8-3.3,6.1-2.3c2.5,1,1.3,11.4-0.6,16.5c-2,5-16.3,29.8-16.3,29.8
		s-8.9,16.7-6.4,29.9c16.8-25.9,55.1-78.1,78.9-61.7c8,5.7,11.6,18.1,11.6,31.5C818.7,380.8,815.9,393.3,810.6,402.6 M803.7,361.6
		c0,0-1.3-10.3-11.4,1c-8.7,9.6-24.3,27.5-36.8,51.9c13.2-1.5,25.9-8.6,29.8-12.3C791.5,396.7,806,381.7,803.7,361.6 M995,359.3
		h-61.3c-1.2-20.9-3.7-41.2-7.7-62.1c-0.4-2.2-2.3-3.7-4.5-3.7h-14.1c-1.2,0-2.4,0.6-3.2,1.5c-0.8,1-1.1,2.2-0.9,3.5
		c4,20.2,6.6,40.2,7.8,60.9h-59c-2.8,0-5,2.2-5,5V377c0,2.7,2.2,5,5,5h59.9c0,3.1,0.1,6,0.1,8.6c0,18.4-0.8,33.5-2.6,50.6
		c-0.1,1.3,0.3,2.6,1.2,3.6c0.9,1,2.1,1.5,3.4,1.5h13.1c2.6,0,4.7-1.9,4.9-4.5c1.8-17.2,2.6-32.5,2.6-51.3c0-2.6,0-5.5-0.1-8.6H995
		c2.7,0,5-2.2,5-5v-12.8C1000,361.5,997.8,359.3,995,359.3"/>
	<path fill="#FFFFFF" d="M174.7,188.4c-0.9,1.3-1.1,2.9-0.6,4.4c0.5,1.5,1.7,2.6,3.1,3.1l11,3.7c0.7,0.2,1.3,0.3,2,0.3
		c2,0,4-1,5.1-2.7c36-52.9,84.8-97,141-127.4c58-31.4,123.8-48.1,190.2-48.1c80.2,0,157.6,23.7,223.8,68.4
		c64.6,43.6,114.7,104.5,145.1,176.1c0.9,2.1,3,3.5,5.3,3.5h13.1c1.5,0,2.9-0.8,3.8-2c0.9-1.3,1-2.9,0.5-4.3
		c-31.3-76.9-84.1-142.5-152.9-189.7C694.7,25.5,612.2,0,526.5,0C384.8,0,253.3,70.4,174.7,188.4"/>
</g>
</svg>
