<?xml version="1.0" encoding="utf-8"?>
<!-- Generator: Adobe Illustrator 23.1.1, SVG Export Plug-In . SVG Version: 6.00 Build 0)  -->
<svg version="1.2" baseProfile="tiny" id="Layer_1" xmlns="http://www.w3.org/2000/svg" xmlns:xlink="http://www.w3.org/1999/xlink"
	 x="0px" y="0px" viewBox="0 0 977 592" xml:space="preserve">
<path fill="#D81F26" d="M66.4,109.6c-5.7,1-11.6,1.3-17.6,2.1L30.4,57.9v56.2c-5.7,0.6-11,1.4-16.4,2.2v-103h15.3l20.9,58.4V13.3
	h16.2L66.4,109.6L66.4,109.6z M98.1,51c6.2,0,15.8-0.3,21.5-0.3v16.1c-7.1,0-15.5,0-21.5,0.3V91c9.5-0.6,18.9-1.4,28.5-1.7v15.5
	L82,108.3v-95h44.5v16.1H98.1C98.1,29.4,98.1,51,98.1,51z M186.4,29.4h-16.7v74c-5.4,0-10.9,0-16.1,0.2V29.4h-16.7V13.3h49.5
	C186.4,13.3,186.4,29.4,186.4,29.4z M212.5,49.9h22V66h-22v36.5h-15.8V13.3h44.9v16.1h-29.2C212.5,29.4,212.5,49.9,212.5,49.9z
	 M267.8,88.4c9.1,0.2,18.4,0.9,27.3,1.4v15.9c-14.4-0.9-28.8-1.8-43.4-2.1V13.3h16.1V88.4L267.8,88.4z M308.7,106.8
	c5.1,0.3,10.6,0.6,15.8,1.2V13.3h-15.8V106.8z M395,13.3l-20.4,49l20.4,54c-6-0.8-12.1-1.9-18.1-2.9l-11.6-29.8l-11.8,27.3
	c-5.8-1-11.5-1.3-17.3-2.1L357,61.7l-18.7-48.4h17.3l10.6,27l11.3-27L395,13.3L395,13.3z"/>
<path fill="#FF1A1A" d="M703.5,267.5c-1.4-5.2-5.5-9.3-10.7-10.7c-9.5-2.6-47.5-2.6-47.5-2.6s-38,0-47.5,2.5
	c-5.1,1.4-9.3,5.6-10.7,10.8c-2.5,9.5-2.5,29.2-2.5,29.2s0,19.8,2.5,29.2c1.4,5.2,5.5,9.3,10.7,10.7c9.6,2.6,47.5,2.6,47.5,2.6
	s38,0,47.5-2.5c5.2-1.4,9.3-5.5,10.7-10.7c2.5-9.5,2.5-29.2,2.5-29.2S706.1,277,703.5,267.5z M633.2,314.9v-36.4l31.6,18.2
	L633.2,314.9z"/>
<g>
	<path fill="#282828" d="M760.9,331.6c-2.4-1.6-4.1-4.1-5.1-7.6c-1-3.4-1.5-8-1.5-13.6v-7.7c0-5.7,0.6-10.3,1.7-13.8
		c1.2-3.5,3-6,5.4-7.6c2.5-1.6,5.7-2.4,9.7-2.4c3.9,0,7.1,0.8,9.5,2.4c2.4,1.6,4.1,4.2,5.2,7.6c1.1,3.4,1.7,8,1.7,13.8v7.7
		c0,5.7-0.5,10.2-1.6,13.7c-1.1,3.4-2.8,6-5.2,7.6c-2.4,1.6-5.7,2.4-9.8,2.4C766.7,334,763.3,333.2,760.9,331.6L760.9,331.6z
		 M774.4,323.2c0.7-1.7,1-4.6,1-8.5v-16.6c0-3.8-0.3-6.6-1-8.4c-0.7-1.8-1.8-2.6-3.5-2.6c-1.6,0-2.8,0.9-3.4,2.6
		c-0.7,1.8-1,4.6-1,8.4v16.6c0,3.9,0.3,6.8,1,8.5c0.6,1.7,1.8,2.6,3.5,2.6C772.6,325.8,773.7,325,774.4,323.2z M945.5,310.5v2.7
		c0,3.4,0.1,6,0.3,7.7c0.2,1.7,0.6,3,1.3,3.7c0.6,0.8,1.6,1.2,3,1.2c1.8,0,3-0.7,3.7-2.1c0.7-1.4,1-3.7,1.1-7l10.3,0.6
		c0.1,0.5,0.1,1.1,0.1,1.9c0,4.9-1.3,8.6-4,11c-2.7,2.4-6.5,3.6-11.4,3.6c-5.9,0-10-1.9-12.4-5.6c-2.4-3.7-3.6-9.4-3.6-17.2v-9.3
		c0-8,1.2-13.8,3.7-17.5c2.5-3.7,6.7-5.5,12.6-5.5c4.1,0,7.3,0.8,9.5,2.3s3.7,3.9,4.6,7c0.9,3.2,1.3,7.6,1.3,13.2v9.1h-20.1V310.5z
		 M947,288.1c-0.6,0.8-1,2-1.2,3.7c-0.2,1.7-0.3,4.3-0.3,7.8v3.8h8.8v-3.8c0-3.4-0.1-6-0.3-7.8c-0.2-1.8-0.7-3-1.3-3.7
		c-0.6-0.7-1.6-1.1-2.8-1.1C948.5,286.9,947.6,287.3,947,288.1L947,288.1z M731.7,309.5l-13.6-49.3H730l4.8,22.3
		c1.2,5.5,2.1,10.2,2.7,14.1h0.3c0.4-2.8,1.3-7.4,2.7-14l5-22.4h11.9l-13.8,49.3v23.6h-11.8L731.7,309.5L731.7,309.5z M826.2,279.9
		v53.3h-9.4l-1-6.5h-0.3c-2.5,4.9-6.4,7.4-11.5,7.4c-3.5,0-6.1-1.2-7.8-3.5c-1.7-2.3-2.5-5.9-2.5-10.9v-39.8h12V319
		c0,2.4,0.3,4.1,0.8,5.1s1.4,1.5,2.6,1.5c1,0,2-0.3,3-1c1-0.6,1.7-1.4,2.1-2.4v-42.3H826.2L826.2,279.9z M887.7,279.9v53.3h-9.4
		l-1-6.5H877c-2.5,4.9-6.4,7.4-11.5,7.4c-3.5,0-6.1-1.2-7.8-3.5c-1.7-2.3-2.5-5.9-2.5-10.9v-39.8h12V319c0,2.4,0.3,4.1,0.8,5.1
		s1.4,1.5,2.6,1.5c1,0,2-0.3,3-1c1-0.6,1.7-1.4,2.1-2.4v-42.3H887.7L887.7,279.9z"/>
	<path fill="#282828" d="M858.8,269.9h-11.9v63.2h-11.7v-63.2h-11.9v-9.7h35.5V269.9z M927.4,288.4c-0.7-3.4-1.9-5.8-3.5-7.3
		c-1.6-1.5-3.9-2.3-6.7-2.3c-2.2,0-4.3,0.6-6.2,1.9c-1.9,1.2-3.4,2.9-4.4,4.9h-0.1v-28.1h-11.6v75.6h9.9l1.2-5h0.3
		c0.9,1.8,2.3,3.2,4.2,4.3c1.9,1,3.9,1.6,6.2,1.6c4.1,0,7-1.9,8.9-5.6c1.9-3.7,2.9-9.6,2.9-17.5v-8.4
		C928.4,296.4,928.1,291.7,927.4,288.4L927.4,288.4z M916.4,310.1c0,3.9-0.2,6.9-0.5,9.1c-0.3,2.2-0.9,3.8-1.6,4.7
		c-0.8,0.9-1.8,1.4-3,1.4c-1,0-1.9-0.2-2.7-0.7s-1.5-1.2-2-2.1v-30.2c0.4-1.4,1.1-2.6,2.1-3.6c1-0.9,2.1-1.4,3.2-1.4
		c1.2,0,2.2,0.5,2.8,1.4c0.7,1,1.1,2.6,1.4,4.8c0.3,2.3,0.4,5.5,0.4,9.6L916.4,310.1L916.4,310.1z"/>
</g>
<g id="Layer_2_1_">
	<g id="Ebene_1">
		<path fill="#D1EFFA" d="M776.2,123v-0.2c0.2-0.2,0.5-0.4,0.8-0.3c1.4,0,2.7,0,4.1,0c0.3,0,0.6,0.1,0.8,0.3v0.2H776.2z"/>
		<path fill="#00A8E1" d="M781.9,122.8c-1.9,0-3.8,0-5.7,0c-2.6-0.1-5.2-0.2-7.8-0.4c-6.9-0.5-13.7-1.6-20.5-3.1
			c-23.2-5.4-43.6-16.2-61.3-31.9c-1.7-1.5-3.2-3-4.8-4.5c-0.4-0.3-0.7-0.8-0.9-1.3c-0.3-0.7-0.1-1.4,0.3-1.9
			c0.5-0.5,1.2-0.7,1.9-0.4c0.4,0.2,0.9,0.4,1.2,0.6c17,10.5,35.5,18.1,54.9,22.7c6.5,1.5,13.1,2.7,19.7,3.5
			c9.5,1.2,19.1,1.6,28.6,1.3c5.1-0.1,10.3-0.6,15.4-1.3c11.9-1.5,23.7-4.2,35.1-8c6-2,11.9-4.3,17.6-6.9c0.9-0.5,1.9-0.6,2.8-0.4
			c1.6,0.4,2.5,2,2.1,3.5c0,0.2-0.1,0.4-0.2,0.6c-0.4,0.7-0.9,1.3-1.6,1.8c-5.4,4.3-11.3,8-17.5,11.1c-11.7,5.9-24.1,10.1-37,12.5
			C796.9,121.7,789.4,122.5,781.9,122.8z"/>
		<path fill="#00A8E1" d="M711.9,27c1.2-0.7,2.4-1.5,3.7-2.1c3.3-1.7,7-2.6,10.7-2.4c2.7,0.1,5.1,0.9,7,2.9c1.8,1.8,2.5,4.1,2.6,6.6
			c0,0.5,0,1,0,1.6v24.5c0,2.1-0.3,2.4-2.4,2.4h-5.8c-0.4,0-0.8,0-1.1,0c-0.6,0-1-0.5-1.1-1.1c-0.1-0.5-0.1-1-0.1-1.6V35.9
			c0-0.9,0-1.7-0.3-2.6c-0.4-1.5-1.7-2.5-3.2-2.6c-2.8-0.2-5.6,0.4-8.1,1.6c-0.4,0.1-0.6,0.5-0.6,0.9V58c0,0.5,0,0.9-0.1,1.4
			c0,0.7-0.5,1.1-1.2,1.1l0,0c-0.7,0-1.4,0-2.2,0h-5c-1.7,0-2.1-0.4-2.1-2.2V36c0-0.8,0-1.7-0.2-2.5c-0.3-1.6-1.7-2.7-3.3-2.8
			c-2.8-0.2-5.7,0.4-8.3,1.6c-0.4,0.1-0.6,0.5-0.5,0.9v25.2c0,1.7-0.4,2.1-2.1,2.1H682c-1.7,0-2.1-0.5-2.1-2.1V25.6
			c0-0.4,0-0.8,0.1-1.1c0.2-0.6,0.8-0.9,1.3-0.9h5.9c0.9,0,1.4,0.5,1.7,1.3c0.2,0.7,0.4,1.3,0.6,2c0.5,0,0.8-0.3,1.1-0.5
			c2.6-1.6,5.3-3,8.4-3.5c2.4-0.5,4.7-0.5,7.1,0c2.2,0.5,4.2,1.8,5.5,3.7c0.1,0.1,0.2,0.2,0.3,0.3C711.8,26.9,711.9,26.9,711.9,27z"
			/>
		<path fill="#232F3E" d="M809.9,50.5c0.3-0.9,0.6-1.8,0.9-2.8c2.2-7.3,4.3-14.6,6.5-21.9l0.3-0.9c0.2-0.9,1-1.4,1.9-1.4h7.2
			c1.8,0,2.2,0.5,1.6,2.2l-2.8,7.5c-3.2,8.2-6.3,16.5-9.5,24.7c-0.1,0.3-0.2,0.6-0.3,0.9c-0.3,1-1.3,1.7-2.4,1.6c-2.1,0-4.2,0-6.2,0
			c-1.5,0-2.3-0.6-2.8-1.9c-1.2-3.1-2.4-6.3-3.6-9.4c-2.8-7.4-5.7-14.8-8.6-22.3c-0.3-0.6-0.5-1.2-0.6-1.8c-0.1-0.9,0.2-1.4,1.1-1.4
			c2.7,0,5.4,0,8,0c1.1,0,1.7,0.8,1.9,1.7c0.5,1.8,1,3.6,1.6,5.4C805.9,37.3,807.8,43.9,809.9,50.5
			C809.7,50.5,809.8,50.5,809.9,50.5z"/>
		<path fill="#00A8E1" d="M642.1,28.8c0.3-0.1,0.6-0.3,0.8-0.6c0.9-0.9,1.7-1.7,2.7-2.4c2.5-1.9,5.5-2.8,8.6-2.6
			c1.2,0,1.7,0.4,1.7,1.6c0.1,1.6,0,3.3,0,4.9c0,0.7,0,1.3-0.1,1.9c-0.2,0.9-0.5,1.2-1.4,1.3c-0.7,0-1.3,0-1.9,0
			c-3.2-0.3-6.2,0.3-9.2,1.3c-0.7,0.2-0.7,0.7-0.7,1.2v22.7c0,0.4,0,0.8,0,1.2c0,0.6-0.5,1.1-1.1,1.1c-0.3,0-0.7,0-1,0h-6.1
			c-0.3,0-0.7,0-1,0c-0.6,0-1.1-0.6-1.1-1.2c0-0.4,0-0.8,0-1.1V26c0-2.2,0.2-2.4,2.4-2.4h4.5c1.2,0,1.8,0.4,2.1,1.6
			C641.5,26.4,641.8,27.5,642.1,28.8z"/>
		<path fill="#00A8E1" d="M863.1,76.7c3.1,0.1,6.2,0.3,9.2,1.1c0.9,0.2,1.7,0.5,2.5,0.9c1.1,0.4,1.8,1.5,1.9,2.6
			c0.2,1.3,0.2,2.7,0.1,4.1c-0.6,8.1-3.1,15.9-7.3,22.8c-1.5,2.5-3.4,4.8-5.5,6.8c-0.4,0.4-0.9,0.8-1.5,0.9
			c-0.9,0.2-1.5-0.2-1.5-1.1c0-0.5,0.1-0.9,0.3-1.4c1.7-4.4,3.3-8.8,4.5-13.4c0.8-2.5,1.3-5.1,1.6-7.7c0.1-0.9,0.1-1.9,0-2.8
			c0-1.6-1.1-3-2.6-3.4c-1.5-0.5-3-0.8-4.5-0.9c-4.3-0.2-8.7,0-13,0.6l-5.7,0.7c-0.6,0-1.2,0-1.5-0.6c-0.3-0.6-0.2-1.1,0.1-1.7
			c0.4-0.5,0.9-1,1.4-1.3c3.5-2.5,7.4-4,11.6-5C856.5,77.1,859.8,76.8,863.1,76.7z"/>
		<path fill="#232F3E" d="M843.3,42v17c-0.1,0.9-0.5,1.4-1.5,1.4c-2.6,0-5.1,0-7.6,0c-0.9,0-1.4-0.5-1.5-1.4c0-0.3,0-0.6,0-0.9V25.5
			c0-1.5,0.4-1.9,1.9-1.9h6.8c1.5,0,1.9,0.4,1.9,1.9L843.3,42L843.3,42z"/>
		<path fill="#00A8E1" d="M660.5,41.9V25.2c0-1.1,0.5-1.6,1.6-1.6c2.5,0,4.9,0,7.4,0c1.1,0,1.4,0.3,1.5,1.4c0,0.4,0,0.8,0,1.2v31.5
			c0,0.5,0,1-0.1,1.6c0,0.6-0.5,1-1.1,1.1c-0.3,0-0.5,0-0.8,0h-6.6c-0.2,0-0.4,0-0.7,0c-0.7,0-1.2-0.6-1.3-1.2c0-0.4,0-0.8,0-1.1
			C660.5,52.7,660.5,47.3,660.5,41.9z"/>
		<path fill="#00A8E1" d="M666,6.7c0.8,0,1.5,0.1,2.2,0.3c2.6,0.9,3.9,3.1,3.6,6c-0.2,2.5-2,4.4-4.5,4.8c-1,0.2-2.1,0.2-3.2,0
			c-2.7-0.5-4.7-2.5-4.5-5.9C660,8.5,662.2,6.7,666,6.7z"/>
		<path fill="#232F3E" d="M838.1,6.7c0.9-0.1,1.9,0.1,2.8,0.5c1.8,0.7,3.1,2.4,3.2,4.4c0.4,4.3-2.5,6.5-6.3,6.4
			c-0.5,0-1-0.1-1.6-0.2c-2.9-0.7-4.4-3-4.2-6.2c0.2-2.6,2.3-4.5,5.1-4.8C837.4,6.7,837.7,6.6,838.1,6.7z"/>
		<path fill="#00A8E1" d="M625.1,38.1c-0.2-2.5-0.9-4.9-1.8-7.1c-1.9-4.1-4.9-7-9.4-8.1c-5.2-1.1-9.9,0-14.1,3.2
			c-0.3,0.3-0.6,0.5-1,0.7c-0.1,0-0.2-0.1-0.2-0.1c-0.1-0.5-0.2-0.9-0.4-1.4c-0.4-1.2-0.9-1.6-2.1-1.6c-1.4,0-2.9,0-4.3,0
			c-1.1,0-2.1,0.1-2.8,0.9c0,16.5,0,33.1,0,49.6c0.6,1,1.6,1.2,2.6,1.1c1.7,0,3.4,0,5.1,0c3,0,3,0,3-2.9V58.9c0-0.3-0.1-0.7,0.2-1
			c2.4,1.8,5.2,3,8.2,3.3c4.2,0.4,7.9-0.6,11.1-3.4c2.3-2.1,4-4.9,4.9-7.9C625.4,46,625.5,42,625.1,38.1z M613.8,47.9
			c-0.3,1.5-1.1,2.8-2.2,3.8c-1.2,1-2.7,1.7-4.3,1.7c-2.4,0.1-4.8-0.4-6.9-1.5c-0.5-0.2-0.9-0.8-0.8-1.3v-8.6c0-2.8,0-5.7,0-8.5
			c0-0.7,0.3-1.2,0.9-1.5c2.6-1.2,5.3-1.8,8.1-1.2c2,0.3,3.7,1.6,4.5,3.4c0.7,1.5,1.1,3.2,1.2,4.8C614.7,41.9,614.7,45,613.8,47.9z"
			/>
		<path fill="#232F3E" d="M966.9,45.4C966.9,45.4,966.9,45.4,966.9,45.4C966.9,45.4,966.9,45.4,966.9,45.4z"/>
		<path fill="#232F3E" d="M967,39.1v0.2c-0.2-0.2-0.3-0.5-0.2-0.7v-0.4c0,0,0,0,0,0h0v-0.5h0.1c0,0,0,0,0-0.1
			c-0.1-0.9-0.3-1.8-0.5-2.6c-1.7-6.2-5.7-10.3-12-12c-3-0.7-6-0.8-9-0.3c-6.4,0.9-11,4.3-13.2,10.4c-2.2,5.8-2.1,12.1,0,17.9
			c1.9,5.2,5.7,8.6,11.1,9.9c2.9,0.7,5.9,0.9,8.9,0.5c9.9-1.2,14-8.7,14.7-15.2h0v-0.7c0-0.3-0.1-0.5,0.2-0.7v0.1c0,0,0-0.1,0.1-0.2
			L967,39.1C967,39.2,967,39.2,967,39.1z M955.6,48.1c-0.3,1-0.7,1.9-1.3,2.7c-1,1.5-2.7,2.4-4.5,2.6c-0.9,0.1-1.8,0.1-2.7-0.1
			c-2-0.4-3.6-1.7-4.4-3.5c-0.7-1.5-1.1-3.1-1.3-4.7c-0.2-2.8-0.3-5.6,0.4-8.3c0.2-1.1,0.7-2.2,1.3-3.1c1-1.7,2.8-2.8,4.8-2.9
			c0.9-0.1,1.8-0.1,2.7,0.1c1.9,0.4,3.4,1.6,4.3,3.4c0.8,1.7,1.3,3.5,1.4,5.3c0,0.9,0.1,1.7,0,2.6C956.4,44.1,956.2,46.2,955.6,48.1
			z"/>
		<path fill="#232F3E" d="M884.1,7h-6.6c-1.8,0-2.1,0.3-2.1,2.1v15.3c0,0.3,0.1,0.7-0.1,1c-0.4,0-0.7-0.3-1-0.5
			c-4.9-2.9-10.1-3.4-15.3-1c-3.6,1.7-5.9,4.8-7.4,8.4c-1.4,3.5-1.7,7.2-1.7,10.9c0,3.5,0.8,6.9,2.4,10.1c1.8,3.4,4.4,6.1,8.2,7.2
			c5.1,1.6,10,0.8,14.4-2.5c0.3-0.2,0.5-0.5,0.9-0.6c0.2,0.5,0.4,1.1,0.5,1.7c0.2,0.8,0.9,1.3,1.7,1.3h1.1c1.7,0,3.4,0,5,0
			c1.3,0,1.7-0.4,1.7-1.8V8.8C885.9,7.3,885.6,7,884.1,7z M875.5,41.8v8.6c0.1,0.6-0.2,1.1-0.8,1.3c-2.3,1.3-4.9,1.8-7.4,1.4
			c-2.2-0.2-4.1-1.6-5.1-3.5c-0.8-1.5-1.2-3.1-1.3-4.8c-0.4-3-0.1-6,0.6-8.9c0.2-0.8,0.5-1.6,0.9-2.3c1-1.8,2.9-3,5-3.2
			c2.5-0.2,5,0.2,7.3,1.3c0.6,0.2,0.9,0.8,0.9,1.4C875.4,36,875.5,38.9,875.5,41.8L875.5,41.8z"/>
		<path fill="#00A8E1" d="M753.3,45c3.5,0.7,7.2,0.7,10.7,0.1c2.1-0.3,4.1-0.9,5.9-1.9c2.1-1.2,3.7-2.9,4.3-5.3
			c1.7-6-0.9-12-7.1-14.2c-3-1-6.2-1.3-9.4-0.9c-7.5,0.9-12.3,5-14.6,12.1c-1.6,4.9-1.4,9.8-0.1,14.7c1.7,6.3,5.8,10,12.1,11.3
			c3.6,0.8,7.2,0.7,10.8,0.1c1.9-0.3,3.8-0.8,5.6-1.5c1.1-0.4,1.7-1.1,1.6-2.3c0-1.1,0-2.3,0-3.5c0-1.4-0.6-1.8-1.9-1.5
			c-1.4,0.3-2.7,0.6-4.1,0.9c-2.9,0.6-6,0.6-8.9,0.1c-4-0.8-6.6-4.3-6.4-8.5C752.4,44.9,752.9,44.9,753.3,45z M752.1,37.8
			c0.1-1.1,0.5-2.2,0.9-3.3c1.4-3.4,4.4-4.6,7.4-4.4c0.9,0,1.7,0.2,2.5,0.6c1.2,0.5,2,1.7,2.2,3c0.1,0.8,0.1,1.7-0.1,2.5
			c-0.6,1.7-1.9,2.4-3.6,2.7c-1,0.2-2,0.3-3.1,0.2c-1.8,0-3.7-0.1-5.6-0.4C752,38.5,752,38.5,752.1,37.8z"/>
		<path fill="#232F3E" d="M912.7,45.5c2.7-0.2,5.5-0.7,7.9-2c2.5-1.2,4.3-3.5,4.8-6.3c0.3-1.7,0.3-3.5,0-5.2c-1-4.3-3.7-6.9-7.7-8.3
			c-2.3-0.7-4.7-1-7-0.9c-7.9,0.2-14,4.2-16.4,12.1c-1.7,5.2-1.4,10.6,0.2,15.8c1.7,5.4,5.4,8.6,10.8,10.1c2.3,0.6,4.7,0.8,7.1,0.7
			c3.4,0,6.9-0.7,10.2-1.9c1.4-0.5,1.7-1,1.7-2.5v-3.4c0-1.4-0.6-1.8-2-1.5c-1,0.3-2,0.5-3.1,0.8c-3.2,0.8-6.5,0.9-9.7,0.3
			c-3.2-0.6-5.4-2.5-6.2-5.7c-0.2-0.9-0.4-1.9-0.5-2.9c0.2,0,0.5,0,0.7,0.1C906.3,45.5,909.5,45.7,912.7,45.5z M902.8,37.9
			c0.3-1.8,0.8-3.6,1.9-5.1c1.7-2.3,4.2-3,6.9-2.7c0.2,0,0.4,0.1,0.7,0.1c3.3,0.5,4.1,3.2,3.5,5.7c-0.5,1.9-2,2.6-3.8,2.9
			c-0.9,0.2-1.9,0.3-2.9,0.2c-1.9,0-3.8-0.2-5.7-0.5C902.9,38.5,902.7,38.4,902.8,37.9L902.8,37.9z"/>
	</g>
</g>
<g>
	<path fill="#101C50" d="M182.8,319c0.2,0,0.3,0,0.5,0.1c3.5,0.5,6.9,1.1,9.6,2.3c2.4,1.1,3.9,2.4,5.2,4.9c2,3.7,2.1,8.8,0.3,12.7
		c-1.3,2.9-4.3,5.3-7,6.6c-2.8,1.4-5.5,2-8.7,2.4c-5.5,0.6-11.5-0.5-16.4-2.9c-2.9-1.4-6.5-3.9-8.3-7.1c-1.3-2.3-1.3-5.4,0.3-7.6
		c2.6-3.5,8.1-4.3,12.3-4.2c3.2,0.1,8.9,1.1,11.9,2.2c0.8,0.3,3.9,1.5,4.4,2c0.4,0.4,0.6,0.9,0.5,1.5c-0.7,2.1-5.8,3.2-7.3,3.4
		c-4,0.6-6-0.9-10.5-2.7c-1.1-0.4-2.6-0.9-3.7-1c-2-0.2-4.5,0.4-4.9,2.6c-0.2,1.1,1.2,2.2,2.2,2.7c2.4,1,4.4,1.4,6.7,1.4
		c7,0.1,14.9-1,20.6-5.1c0.8-0.6,1.6-1.4,1.6-2.4c0-2.1-3.6-3.4-3.6-3.4c-3.9-1.6-11-2.4-14.7-2.7c-3.9-0.3-9.9-0.8-11.4-1
		c-1.5-0.2-3.1-0.5-4.4-1.1c-1.3-0.6-2.6-1.9-3-3.4c-0.7-2.6,0.2-5.9,1.6-8c3.8-5.5,12.8-7.6,19.5-8.4c6.5-0.8,17-0.8,23.3,2.6
		c1,0.5,1.5,1,1.3,2.1c-0.4,2-1.9,3.2-3.7,3.8c-1.9,0.6-5.8,0.8-7.5,0.9c-7.7,0.4-17,0.2-24.3,2.2c-0.6,0.2-1.6,0.4-1.9,0.8
		c-1.1,1.2,2.1,1.6,2.8,1.7c0.2,0,0.2,0.1,0.5,0.1L182.8,319 M137.1,284.7c0,0,1.2-1.9,2.3-3.3c1.9-2.6,5.4-6.2,8-8.4
		c0.8-0.7,1.7-1.4,1.7-1.4s-1.5,0.2-2.3,0.3c-2,0.4-4.9,2.3-6.3,3.5c-2.4,2-5,5.4-3.8,8.3C136.9,284.2,137.1,284.7,137.1,284.7
		 M150.4,288.3c3.8-0.3,7.3-1.3,10.6-3.2c3.2-1.8,8-5.3,7.5-9.4c-0.1-1.3-1-2.3-2.1-2.8c-1.4-0.6-2.2-0.5-4,0
		c-1.3,0.4-1.9,0.6-3.2,1.3c-3.7,2.1-8.9,6.7-11.8,10.4c-0.7,0.9-1.3,1.8-1.8,2.5c-0.3,0.4-0.6,0.8-0.6,0.9
		C145,288.4,148.9,288.4,150.4,288.3 M140.8,295.3c-0.4,0.4-0.8,1.4-1.2,2.1c-0.2,0.4-0.6,0.9-0.9,1.1c-1,0.7-1.8,0.8-2.8-0.1
		c-1.3-1.2-2.1-3-2.1-4.8c0-0.8,0.1-1.6,0-2.3c-0.2-1.1-1.3-2.2-1.9-3.3c-0.7-1.2-1.3-3.4-1.3-4.8c-0.2-4.3,2-8.3,5-11.5
		c3-3.2,6.9-5.8,11.1-7.6c4-1.7,9.9-2.8,14.3-1.3c1.4,0.5,3.4,1.7,4.4,3c0.2,0.3,0.4,0.6,0.6,0.7c0.2,0.1,0.7,0.2,1.1,0.2
		c1.4,0.2,3.4,1.3,4.3,2c1.7,1.4,2.6,2.8,3,4.8c0.8,4-1.5,8.4-4.1,11.1c-4.5,4.6-8.9,7.8-14.7,10.1c-2.5,1-6.5,1.9-9.3,1.7
		c-0.9-0.1-1.8-0.3-2.7-0.4c-0.4,0-2.1-0.5-2.2-0.6C141.1,295.4,140.9,295.3,140.8,295.3 M145.9,304.2c0.2,0,0.4,0.1,0.7,0.2
		c2,0.8,2.8,2.6,3.3,4.7c1.2,4.8,1.6,15.3,1.8,19.4c0.1,3.1,0.2,6.1,0.3,9.2c0.1,2.6,0.3,6-0.2,8.5c-0.2,0.9-0.8,1.9-1.6,2.4
		c-1,0.6-3.1,0.7-4.3,0.4c-3-0.6-3.9-2.5-4.3-5.4c-1-7-0.5-20.6,0.1-26.4c0.2-1.9,0.9-8,1.9-10.6C144,305.7,144.7,304,145.9,304.2
		 M56.1,315.8c0,0-4.4,0.3-7.4,0.6c-3.8,0.4-11.1,1.7-15.3,3.2c-1.3,0.4-3.8,1.5-4,2.8c-0.2,1.3,0.6,2.4,1.5,3.5
		c0.5,0.6,3.5,3.5,4.4,4.2c3.5,3,10.7,7.5,16,9.7c1.8,0.8,4.8,1.8,4.8,1.8s-0.2-8.6-0.2-17C56,320.2,56.1,315.8,56.1,315.8
		 M136.7,319.2c0.3,2.3-0.3,6.7-0.4,7.2c-0.2,1.3-1.2,4.4-1.3,4.7c-0.8,1.9-1.6,3.4-2.4,4.9c-1.4,2.6-4.9,6.7-6.9,8.5
		c-7.6,6.5-19.3,10.3-29.3,11.5c-6.8,0.8-14.7,0.7-21.9-0.6c-2.5-0.5-6.2-1.3-6.2-1.3s0,1.5-0.1,2.5c-0.1,0.5-0.4,1.7-0.6,2.1
		c-0.5,1.1-1.4,1.6-2.6,1.9c-1.5,0.3-3.1,0.4-4.5-0.2c-2.3-1-3.1-3.1-3.5-5.6c-0.3-2-0.7-5.4-0.7-5.4s-1.7-0.8-3.2-1.5
		c-4.4-2.2-8.6-4.8-12.2-7.5c-1-0.8-5.4-4.4-6.3-5.3c-2.7-2.6-5.1-5.1-7-8.4c-1.4-2.5-1.8-4.8-0.8-7.5c1.5-3.8,6.9-6.6,10.6-8.2
		c2.7-1.2,11.1-4,14.6-4.5c1.7-0.2,4.2-0.7,4.4-0.8c0.1,0,0.1-0.1,0.2-0.1c0.1-0.1,0.2-3.8,0.2-5.2c0-1.3,1-10.1,1.3-12
		c0.2-1,0.9-4.9,1.7-5.9c0.5-0.7,1.4-0.6,2.1-0.2c4,2.5,5.2,11.2,5.5,15.6c0.2,2.7,0.3,6.7,0.3,6.7s4.6-0.1,7.4-0.1
		c2.8,0.1,5.8,0.5,8.7,1c3.7,0.6,10.8,2.1,14.9,4.2c3.4,1.7,6.5,4.6,7.5,7.6c0.9,2.8,0.8,4.7-0.6,7.2c-1.6,2.8-4.7,5-7.8,5.1
		c-0.9,0.1-4.4-0.4-5.5-1.2c-0.4-0.3-0.4-0.9-0.1-1.3c0.1-0.1,1.7-1,2.7-1.5c0.5-0.3,0.9-0.5,1.3-0.9c0.8-0.7,1.5-1.5,1.4-2.4
		c-0.1-1.2-1.4-1.9-2.6-2.4c-5.6-2.2-16.7-4.1-22.1-4.4c-2.1-0.1-5.1-0.2-5.1-0.2l0.6,29.8c0,0,2.5,0.5,4.4,0.8
		c1.1,0.2,5.9,0.6,7.1,0.6c9.6,0.3,20.4-0.6,29.2-4.8c3.9-1.8,7.4-4.1,10.1-7.2c3.5-4.1,5.4-9.6,4.9-15.5c-0.5-6.4-5-13.9-8.6-18.5
		c-9.4-12.1-25.6-22.1-39.8-28c-14.5-6-28.9-9.4-44.3-10c-4-0.1-12.6,0.1-17,1.3c-0.6,0.2-1.3,0.4-1.8,0.5c-0.5,0.1-1.2,0.4-1.4,0.6
		c-0.1,0.1-0.2,0.2-0.2,0.2s0.3,0.1,0.5,0.3c0.5,0.2,2.4,0.3,3.4,0.5c0.9,0.2,1.8,0.6,2.2,1.3c0.4,0.6,0.4,1.1,0,1.7
		c-1,1.2-4.7,1-6.4,0.7c-1.7-0.3-3.8-0.8-4.2-2.3c-0.5-1.8,0.4-3.5,1.3-5.1c1.8-3.2,4.4-4.8,8.2-5.9c5.4-1.5,12.2-2.5,17.3-2.7
		c11.5-0.4,22.4,1.6,33.5,5c6.4,1.9,14.7,5.2,20.8,8.1c4.4,2.1,11.3,6,15.2,8.5c1.2,0.8,8.4,6.1,9.5,7c2.3,1.9,5.4,4.6,7.6,6.8
		c4.3,4.2,9.5,10.7,12.1,15.8c0.6,1.2,1.1,2.4,1.9,3.9c0.3,0.5,1.4,3.4,1.6,4.2c0.2,0.8,0.5,2.1,0.5,2.1
		C136.2,315.7,136.7,318.2,136.7,319.2 M281.3,312.6c-5.4,1.2-19.6,1.9-19.6,1.9l-1.8,5.6c0,0,7.1-0.6,12.2-0.1c0,0,1.7-0.2,1.9,1.9
		c0.1,1.9-0.2,4-0.2,4s-0.1,1.3-1.9,1.6c-1.9,0.3-15.3,0.8-15.3,0.8l-2.2,7.3c0,0-0.8,1.7,1,1.2c1.7-0.4,15.6-3.1,17.4-2.7
		c1.9,0.5,4.1,3.1,3.5,5.4c-0.7,2.9-14.7,11.8-23.2,11.2c0,0-4.5,0.3-8.2-5.7c-3.5-5.7,1.3-16.6,1.3-16.6s-2.2-5.1-0.6-6.8
		c0,0,1-0.9,3.7-1.1l3.4-7.1c0,0-3.9,0.3-6.2-2.6c-2.2-2.7-2.3-4-0.7-4.7c1.8-0.9,18-3.8,29.1-3.5c0,0,3.9-0.4,7.2,6.3
		C282.5,309.2,284.1,312,281.3,312.6 M239.4,339.8c-1.4,3.4-5.2,6.9-9.9,4.7c-4.6-2.2-12-17.3-12-17.3s-2.8-5.6-3.3-5.5
		c0,0-0.6-1.1-1,5c-0.4,6.1,0.1,18.1-2.4,19.9c-2.3,1.9-5.1,1.1-6.6-1.1c-1.3-2.2-1.9-7.3-1.1-16.4c0.8-9.1,3-18.7,5.6-21.7
		c2.7-3,4.8-0.8,5.7,0c0,0,3.6,3.3,9.5,12.8l1,1.8c0,0,5.4,9,5.9,9c0,0,0.4,0.4,0.8,0.1c0.6-0.2,0.3-3.1,0.3-3.1s-1.1-9.8-6-26.5
		c0,0-0.7-2.1-0.2-4c0.5-2,2.5-1,2.5-1s7.6,3.8,11.3,16.2C243.3,325.2,240.9,336.4,239.4,339.8 M321.4,332.3
		c-3.5,6-13.3,18.7-26.3,15.7c-4.3,10.4-7.9,20.9-10,36.7c0,0-0.5,3.1-3,2c-2.5-0.9-6.7-5.1-7.5-10.9c-0.9-7.6,2.5-20.5,9.4-35.3
		c-2-3.3-3.4-8-2.2-14.7c0,0,1.7-12.4,14.2-23.6c0,0,1.5-1.3,2.4-0.9c1,0.4,0.5,4.4-0.2,6.4c-0.8,2-6.3,11.6-6.3,11.6
		s-3.5,6.5-2.5,11.6c6.5-10.1,21.4-30.3,30.6-23.9c3.1,2.2,4.5,7,4.5,12.2C324.5,323.9,323.4,328.7,321.4,332.3 M318.7,316.4
		c0,0-0.5-4-4.4,0.4c-3.4,3.7-9.4,10.7-14.3,20.1c5.1-0.6,10.1-3.4,11.6-4.8C313.9,330,319.6,324.2,318.7,316.4 M393,315.5h-23.8
		c-0.5-8.1-1.5-16-3-24.1c-0.2-0.8-0.9-1.5-1.7-1.5h-5.5c-0.5,0-0.9,0.2-1.2,0.6c-0.3,0.4-0.4,0.9-0.3,1.3c1.6,7.9,2.5,15.6,3,23.6
		h-22.9c-1.1,0-1.9,0.9-1.9,1.9v5c0,1.1,0.9,1.9,1.9,1.9h23.3c0,1.2,0,2.3,0,3.3c0,7.1-0.3,13-1,19.7c-0.1,0.5,0.1,1,0.5,1.4
		c0.3,0.4,0.8,0.6,1.3,0.6h5.1c1,0,1.8-0.7,1.9-1.7c0.7-6.7,1-12.6,1-19.9c0-1,0-2.1,0-3.3H393c1.1,0,1.9-0.9,1.9-1.9v-5
		C394.9,316.4,394.1,315.5,393,315.5"/>
	<path fill="#101C50" d="M74.3,249.1c-0.3,0.5-0.4,1.1-0.2,1.7c0.2,0.6,0.6,1,1.2,1.2l4.3,1.4c0.3,0.1,0.5,0.1,0.8,0.1
		c0.8,0,1.5-0.4,2-1.1c14-20.6,32.9-37.7,54.8-49.5c22.5-12.2,48.1-18.7,73.9-18.7c31.1,0,61.2,9.2,86.9,26.6
		c25.1,17,44.6,40.6,56.3,68.4c0.4,0.8,1.2,1.4,2.1,1.4h5.1c0.6,0,1.1-0.3,1.5-0.8c0.3-0.5,0.4-1.1,0.2-1.7
		c-12.1-29.9-32.7-55.4-59.4-73.7c-27.3-18.7-59.4-28.6-92.7-28.6C155.9,175.9,104.9,203.3,74.3,249.1"/>
</g>
<path fill="#1CE783" d="M515,572.3h24.7V470.1H515C515,470.1,515,572.3,515,572.3z M471.7,543.1c0,3.6-3,6.6-6.6,6.6h-14.4
	c-3.6,0-6.6-3-6.6-6.6v-41.2h-24.7v43.2c0,17.7,11.3,27,28,27h24.1c15.4,0,24.7-11.1,24.7-27v-43.2h-24.7
	C471.7,501.9,471.7,541.9,471.7,543.1z M610.5,501.9v41.2c0,3.6-3,6.6-6.6,6.6h-14.4c-3.6,0-6.6-3-6.6-6.6v-41.2h-24.7v43.2
	c0,17.7,11.3,27,28,27h24.1c15.4,0,24.7-11.1,24.7-27v-43.2H610.5L610.5,501.9z M373.9,501.9h-15.8c-5.6,0-8.3,1.4-8.3,1.4v-33.3
	h-24.7v102.1h24.5v-41.1c0-3.6,3-6.6,6.6-6.6h14.4c3.6,0,6.6,3,6.6,6.6v41.2h24.7v-44.5C401.9,509.1,389.4,501.9,373.9,501.9z"/>
</svg>
