<?xml version="1.0" encoding="utf-8"?>
<!-- Generator: Adobe Illustrator 23.1.1, SVG Export Plug-In . SVG Version: 6.00 Build 0)  -->
<svg version="1.2" baseProfile="tiny" id="Layer_1" xmlns="http://www.w3.org/2000/svg" xmlns:xlink="http://www.w3.org/1999/xlink"
	 x="0px" y="0px" viewBox="0 0 216 72" xml:space="preserve">
<path fill="#FFFFFF" d="M132.3,71.3h17.2V0.1h-17.2C132.3,0.1,132.3,71.3,132.3,71.3z M102.1,51c0,2.5-2.1,4.6-4.6,4.6h-10
	c-2.5,0-4.6-2.1-4.6-4.6V22.3H65.7v30.1c0,12.3,7.9,18.8,19.5,18.8H102c10.7,0,17.2-7.7,17.2-18.8V22.3H102
	C102.1,22.3,102.1,50.1,102.1,51z M198.8,22.3V51c0,2.5-2.1,4.6-4.6,4.6h-10c-2.5,0-4.6-2.1-4.6-4.6V22.3h-17.2v30.1
	c0,12.3,7.9,18.8,19.5,18.8h16.8c10.7,0,17.2-7.7,17.2-18.8V22.3H198.8L198.8,22.3z M34,22.3H23c-3.9,0-5.8,1-5.8,1V0.1H0v71.1h17.1
	V42.6c0-2.5,2.1-4.6,4.6-4.6h10c2.5,0,4.6,2.1,4.6,4.6v28.7h17.2v-31C53.5,27.3,44.8,22.3,34,22.3z"/>
</svg>
